{
  "accessors": [
    {
      "bufferView": 2,
      "componentType": 5126,
      "count": 4,
      "max": [
        5.114988327026367,
        0.0,
        5.670267581939697
      ],
      "min": [
        -6.668679237365723,
        0.0,
        -6.1309685707092285
      ],
      "type": "VEC3"
    },
    {
      "bufferView": 2,
      "byteOffset": 48,
      "componentType": 5126,
      "count": 4,
      "max": [
        0.0,
        1.0,
        0.0
      ],
      "min": [
        0.0,
        1.0,
        0.0
      ],
      "type": "VEC3"
    },
    {
      "bufferView": 1,
      "componentType": 5126,
      "count": 4,
      "max": [
        3.1073174476623535,
        3.1093928813934326
      ],
      "min": [
        -2.1075453758239746,
        -2.113246202468872
      ],
      "type": "VEC2"
    },
    {
      "bufferView": 0,
      "componentType": 5125,
      "count": 6,
      "type": "SCALAR"
    },
    {
      "bufferView": 2,
      "byteOffset": 96,
      "componentType": 5126,
      "count": 4,
      "max": [
        -6.808297157287598,
        6.802587032318115,
        4.82897424697876
      ],
      "min": [
        -6.808297157287598,
        0.04139001667499542,
        1.1304067373275757
      ],
      "type": "VEC3"
    },
    {
      "bufferView": 2,
      "byteOffset": 144,
      "componentType": 5126,
      "count": 4,
      "max": [
        1.0,
        0.0,
        0.0
      ],
      "min": [
        1.0,
        0.0,
        0.0
      ],
      "type": "VEC3"
    },
    {
      "bufferView": 1,
      "byteOffset": 32,
      "componentType": 5126,
      "count": 4,
      "max": [
        0.547690749168396,
        0.9861498475074768
      ],
      "min": [
        0.015144458040595055,
        0.012624068185687065
      ],
      "type": "VEC2"
    },
    {
      "bufferView": 0,
      "byteOffset": 24,
      "componentType": 5125,
      "count": 6,
      "type": "SCALAR"
    },
    {
      "bufferView": 2,
      "byteOffset": 192,
      "componentType": 5126,
      "count": 28,
      "max": [
        5.114988327026367,
        8.496236801147461,
        5.670267581939697
      ],
      "min": [
        -6.808297157287598,
        0.0,
        -6.1309685707092285
      ],
      "type": "VEC3"
    },
    {
      "bufferView": 2,
      "byteOffset": 528,
      "componentType": 5126,
      "count": 28,
      "max": [
        1.0,
        1.0,
        1.0
      ],
      "min": [
        0.0,
        -1.0,
        -1.0
      ],
      "type": "VEC3"
    },
    {
      "bufferView": 1,
      "byteOffset": 64,
      "componentType": 5126,
      "count": 28,
      "max": [
        1.898370623588562,
        1.0103293657302856
      ],
      "min": [
        -0.8923212289810181,
        -0.010851830244064331
      ],
      "type": "VEC2"
    },
    {
      "bufferView": 0,
      "byteOffset": 48,
      "componentType": 5125,
      "count": 54,
      "type": "SCALAR"
    },
    {
      "bufferView": 2,
      "byteOffset": 864,
      "componentType": 5126,
      "count": 20,
      "max": [
        4.874241828918457,
        2.0468645095825195,
        0.09575653076171875
      ],
      "min": [
        -4.874241828918457,
        -2.0468642711639404,
        -0.09575653076171875
      ],
      "type": "VEC3"
    },
    {
      "bufferView": 2,
      "byteOffset": 1104,
      "componentType": 5126,
      "count": 20,
      "max": [
        1.0,
        1.0,
        1.0
      ],
      "min": [
        -1.0,
        -1.0,
        0.0
      ],
      "type": "VEC3"
    },
    {
      "bufferView": 1,
      "byteOffset": 288,
      "componentType": 5126,
      "count": 20,
      "max": [
        0.9899170398712158,
        0.9624406099319458
      ],
      "min": [
        0.014783501625061035,
        0.5315331220626831
      ],
      "type": "VEC2"
    },
    {
      "bufferView": 0,
      "byteOffset": 264,
      "componentType": 5125,
      "count": 30,
      "type": "SCALAR"
    },
    {
      "bufferView": 2,
      "byteOffset": 1344,
      "componentType": 5126,
      "count": 52,
      "max": [
        0.653831958770752,
        4.60137939453125,
        0.07888364791870117
      ],
      "min": [
        -0.6856191158294678,
        -0.22390365600585938,
        -0.35172033309936523
      ],
      "type": "VEC3"
    },
    {
      "bufferView": 2,
      "byteOffset": 1968,
      "componentType": 5126,
      "count": 52,
      "max": [
        1.0,
        1.0,
        1.0
      ],
      "min": [
        -1.0,
        -0.0716683566570282,
        -1.0
      ],
      "type": "VEC3"
    },
    {
      "bufferView": 1,
      "byteOffset": 448,
      "componentType": 5126,
      "count": 52,
      "max": [
        0.5205572843551636,
        0.34394440054893494
      ],
      "min": [
        0.3385801911354065,
        0.06347070634365082
      ],
      "type": "VEC2"
    },
    {
      "bufferView": 0,
      "byteOffset": 384,
      "componentType": 5125,
      "count": 96,
      "type": "SCALAR"
    },
    {
      "bufferView": 2,
      "byteOffset": 2592,
      "componentType": 5126,
      "count": 185,
      "max": [
        -0.19684243202209473,
        3.019650936126709,
        3.802412509918213
      ],
      "min": [
        -4.29892110824585,
        0.1848851442337036,
        -0.3633546829223633
      ],
      "type": "VEC3"
    },
    {
      "bufferView": 2,
      "byteOffset": 4812,
      "componentType": 5126,
      "count": 185,
      "max": [
        0.8045617341995239,
        1.0,
        0.8052589893341064
      ],
      "min": [
        -0.8045612573623657,
        -0.9822119474411011,
        -0.8050874471664429
      ],
      "type": "VEC3"
    },
    {
      "bufferView": 1,
      "byteOffset": 864,
      "componentType": 5126,
      "count": 185,
      "max": [
        0.9866200089454651,
        0.9869483709335327
      ],
      "min": [
        0.007535925135016441,
        0.024016406387090683
      ],
      "type": "VEC2"
    },
    {
      "bufferView": 0,
      "byteOffset": 768,
      "componentType": 5125,
      "count": 342,
      "type": "SCALAR"
    },
    {
      "bufferView": 2,
      "byteOffset": 7032,
      "componentType": 5126,
      "count": 68,
      "max": [
        4.015902519226074,
        5.9775800704956055,
        -3.0460121631622314
      ],
      "min": [
        2.3520560264587402,
        0.10074561834335327,
        -4.709858417510986
      ],
      "type": "VEC3"
    },
    {
      "bufferView": 2,
      "byteOffset": 7848,
      "componentType": 5126,
      "count": 68,
      "max": [
        0.9414409399032593,
        1.0,
        0.9414404630661011
      ],
      "min": [
        -0.9414409399032593,
        0.0,
        -0.9414404630661011
      ],
      "type": "VEC3"
    },
    {
      "bufferView": 1,
      "byteOffset": 2344,
      "componentType": 5126,
      "count": 68,
      "max": [
        0.2661969065666199,
        0.9791191220283508
      ],
      "min": [
        0.032245438545942307,
        0.23360615968704224
      ],
      "type": "VEC2"
    },
    {
      "bufferView": 0,
      "byteOffset": 2136,
      "componentType": 5125,
      "count": 102,
      "type": "SCALAR"
    },
    {
      "bufferView": 2,
      "byteOffset": 8664,
      "componentType": 5126,
      "count": 54,
      "max": [
        4.015902519226074,
        6.192225456237793,
        -3.0460121631622314
      ],
      "min": [
        2.3520562648773193,
        5.704407215118408,
        -4.709858417510986
      ],
      "type": "VEC3"
    },
    {
      "bufferView": 2,
      "byteOffset": 9312,
      "componentType": 5126,
      "count": 54,
      "max": [
        0.6874344348907471,
        1.0,
        0.6874346733093262
      ],
      "min": [
        -0.687434732913971,
        -1.0,
        -0.6874344348907471
      ],
      "type": "VEC3"
    },
    {
      "bufferView": 1,
      "byteOffset": 2888,
      "componentType": 5126,
      "count": 54,
      "max": [
        0.18965087831020355,
        0.9797007441520691
      ],
      "min": [
        0.013207780197262764,
        0.6203616857528687
      ],
      "type": "VEC2"
    },
    {
      "bufferView": 0,
      "byteOffset": 2544,
      "componentType": 5125,
      "count": 96,
      "type": "SCALAR"
    },
    {
      "bufferView": 2,
      "byteOffset": 9960,
      "componentType": 5126,
      "count": 20,
      "max": [
        7.850515365600586,
        -5.989672660827637,
        6.480727195739746
      ],
      "min": [
        -6.480726718902588,
        -6.065399169921875,
        -6.480727195739746
      ],
      "type": "VEC3"
    },
    {
      "bufferView": 2,
      "byteOffset": 10200,
      "componentType": 5126,
      "count": 20,
      "max": [
        0.3313385844230652,
        1.0,
        0.33133813738822937
      ],
      "min": [
        -0.33133968710899353,
        0.9435115456581116,
        -0.33133813738822937
      ],
      "type": "VEC3"
    },
    {
      "bufferView": 1,
      "byteOffset": 3320,
      "componentType": 5126,
      "count": 20,
      "max": [
        0.9342577457427979,
        0.9801560044288635
      ],
      "min": [
        0.06574210524559021,
        0.01984405517578125
      ],
      "type": "VEC2"
    },
    {
      "bufferView": 0,
      "byteOffset": 2928,
      "componentType": 5125,
      "count": 30,
      "type": "SCALAR"
    },
    {
      "bufferView": 2,
      "byteOffset": 10440,
      "componentType": 5126,
      "count": 8,
      "max": [
        -1.6795293092727661,
        2.557370185852051,
        -2.583369255065918
      ],
      "min": [
        -2.840327739715576,
        2.5560736656188965,
        -4.000022888183594
      ],
      "type": "VEC3"
    },
    {
      "bufferView": 2,
      "byteOffset": 10536,
      "componentType": 5126,
      "count": 8,
      "max": [
        0.0,
        1.0,
        0.0
      ],
      "min": [
        0.0,
        1.0,
        -7.980595029266624e-08
      ],
      "type": "VEC3"
    },
    {
      "bufferView": 1,
      "byteOffset": 3480,
      "componentType": 5126,
      "count": 8,
      "max": [
        0.9494158029556274,
        0.20478101074695587
      ],
      "min": [
        0.8496865034103394,
        0.05121137201786041
      ],
      "type": "VEC2"
    },
    {
      "bufferView": 0,
      "byteOffset": 3048,
      "componentType": 5125,
      "count": 12,
      "type": "SCALAR"
    },
    {
      "bufferView": 2,
      "byteOffset": 10632,
      "componentType": 5126,
      "count": 164,
      "max": [
        1.9014053344726563,
        2.551152467727661,
        -2.259718418121338
      ],
      "min": [
        -5.901439666748047,
        0.1499808430671692,
        -5.633716583251953
      ],
      "type": "VEC3"
    },
    {
      "bufferView": 2,
      "byteOffset": 12600,
      "componentType": 5126,
      "count": 164,
      "max": [
        1.0,
        1.0,
        1.0
      ],
      "min": [
        -1.0,
        -1.0,
        0.0
      ],
      "type": "VEC3"
    },
    {
      "bufferView": 1,
      "byteOffset": 3544,
      "componentType": 5126,
      "count": 164,
      "max": [
        0.9826578497886658,
        0.9843336343765259
      ],
      "min": [
        0.03956872224807739,
        0.05591166019439697
      ],
      "type": "VEC2"
    },
    {
      "bufferView": 0,
      "byteOffset": 3096,
      "componentType": 5125,
      "count": 234,
      "type": "SCALAR"
    },
    {
      "bufferView": 2,
      "byteOffset": 14568,
      "componentType": 5126,
      "count": 816,
      "max": [
        -4.191805839538574,
        5.223226547241211,
        -3.2058956623077393
      ],
      "min": [
        -5.804467678070068,
        2.5173349380493164,
        -5.363413333892822
      ],
      "type": "VEC3"
    },
    {
      "bufferView": 2,
      "byteOffset": 24360,
      "componentType": 5126,
      "count": 816,
      "max": [
        1.0,
        1.0,
        0.9905201196670532
      ],
      "min": [
        -1.0,
        -0.9999801516532898,
        -0.9957286715507507
      ],
      "type": "VEC3"
    },
    {
      "bufferView": 1,
      "byteOffset": 4856,
      "componentType": 5126,
      "count": 816,
      "max": [
        0.9888367056846619,
        0.990077793598175
      ],
      "min": [
        0.005089282989501953,
        0.02670266106724739
      ],
      "type": "VEC2"
    },
    {
      "bufferView": 0,
      "byteOffset": 4032,
      "componentType": 5125,
      "count": 3696,
      "type": "SCALAR"
    }
  ],
  "asset": {
    "extras": {
      "author": "Julien Chambriard (https://sketchfab.com/julienchambriard)",
      "license": "CC-BY-4.0 (http://creativecommons.org/licenses/by/4.0/)",
      "source": "https://sketchfab.com/3d-models/office-ff164a068b4a41c6815523d461effecc",
      "title": "Office"
    },
    "generator": "Sketchfab-12.68.0",
    "version": "2.0"
  },
  "bufferViews": [
    {
      "buffer": 0,
      "byteLength": 18816,
      "name": "floatBufferViews",
      "target": 34963
    },
    {
      "buffer": 0,
      "byteLength": 11384,
      "byteOffset": 18816,
      "byteStride": 8,
      "name": "floatBufferViews",
      "target": 34962
    },
    {
      "buffer": 0,
      "byteLength": 34152,
      "byteOffset": 30200,
      "byteStride": 12,
      "name": "floatBufferViews",
      "target": 34962
    }
  ],
  "buffers": [
    {
      "byteLength": 64352,
      "uri": "scene.bin"
    }
  ],
  "images": [
    {
      "uri": "textures/material_baseColor.png"
    },
    {
      "uri": "textures/Door_baseColor.png"
    },
    {
      "uri": "textures/material_2_baseColor.png"
    },
    {
      "uri": "textures/Paint_baseColor.png"
    },
    {
      "uri": "textures/desk1_baseColor.png"
    },
    {
      "uri": "textures/Seat_baseColor.png"
    },
    {
      "uri": "textures/Carpet_baseColor.png"
    },
    {
      "uri": "textures/Buste1_baseColor.png"
    }
  ],
  "materials": [
    {
      "doubleSided": true,
      "name": "material",
      "pbrMetallicRoughness": {
        "baseColorTexture": {
          "index": 0
        },
        "metallicFactor": 0.0,
        "roughnessFactor": 0.6
      }
    },
    {
      "doubleSided": true,
      "name": "Door",
      "pbrMetallicRoughness": {
        "baseColorTexture": {
          "index": 1
        },
        "metallicFactor": 0.0,
        "roughnessFactor": 0.6
      }
    },
    {
      "doubleSided": true,
      "name": "material_2",
      "pbrMetallicRoughness": {
        "baseColorFactor": [
          0.8,
          0.8,
          0.8,
          1.0
        ],
        "baseColorTexture": {
          "index": 2
        },
        "metallicFactor": 0.0,
        "roughnessFactor": 0.6
      }
    },
    {
      "doubleSided": true,
      "name": "Paint",
      "pbrMetallicRoughness": {
        "baseColorTexture": {
          "index": 3
        },
        "metallicFactor": 0.0,
        "roughnessFactor": 0.6
      }
    },
    {
      "doubleSided": true,
      "name": "desk1",
      "pbrMetallicRoughness": {
        "baseColorTexture": {
          "index": 4
        },
        "metallicFactor": 0.0,
        "roughnessFactor": 0.6
      }
    },
    {
      "doubleSided": true,
      "name": "Seat",
      "pbrMetallicRoughness": {
        "baseColorTexture": {
          "index": 5
        },
        "metallicFactor": 0.0,
        "roughnessFactor": 0.6
      }
    },
    {
      "doubleSided": true,
      "name": "abatJour",
      "pbrMetallicRoughness": {
        "baseColorTexture": {
          "index": 4
        },
        "metallicFactor": 0.0,
        "roughnessFactor": 0.6
      }
    },
    {
      "doubleSided": true,
      "name": "Carpet",
      "pbrMetallicRoughness": {
        "baseColorTexture": {
          "index": 6
        },
        "metallicFactor": 0.0,
        "roughnessFactor": 0.6
      }
    },
    {
      "doubleSided": true,
      "name": "Buste1",
      "pbrMetallicRoughness": {
        "baseColorTexture": {
          "index": 7
        },
        "metallicFactor": 0.0,
        "roughnessFactor": 0.6
      }
    }
  ],
  "meshes": [
    {
      "name": "murs_sol_0",
      "primitives": [
        {
          "attributes": {
            "NORMAL": 1,
            "POSITION": 0,
            "TEXCOORD_0": 2
          },
          "indices": 3,
          "material": 0,
          "mode": 4
        }
      ]
    },
    {
      "name": "murs_Door_0",
      "primitives": [
        {
          "attributes": {
            "NORMAL": 5,
            "POSITION": 4,
            "TEXCOORD_0": 6
          },
          "indices": 7,
          "material": 1,
          "mode": 4
        }
      ]
    },
    {
      "name": "murs_mur_0",
      "primitives": [
        {
          "attributes": {
            "NORMAL": 9,
            "POSITION": 8,
            "TEXCOORD_0": 10
          },
          "indices": 11,
          "material": 2,
          "mode": 4
        }
      ]
    },
    {
      "name": "paint_Paint_0",
      "primitives": [
        {
          "attributes": {
            "NORMAL": 13,
            "POSITION": 12,
            "TEXCOORD_0": 14
          },
          "indices": 15,
          "material": 3,
          "mode": 4
        }
      ]
    },
    {
      "name": "tablette_desk1_0",
      "primitives": [
        {
          "attributes": {
            "NORMAL": 17,
            "POSITION": 16,
            "TEXCOORD_0": 18
          },
          "indices": 19,
          "material": 4,
          "mode": 4
        }
      ]
    },
    {
      "name": "seat_Seat_0",
      "primitives": [
        {
          "attributes": {
            "NORMAL": 21,
            "POSITION": 20,
            "TEXCOORD_0": 22
          },
          "indices": 23,
          "material": 5,
          "mode": 4
        }
      ]
    },
    {
      "name": "lamp_desk1_0",
      "primitives": [
        {
          "attributes": {
            "NORMAL": 25,
            "POSITION": 24,
            "TEXCOORD_0": 26
          },
          "indices": 27,
          "material": 4,
          "mode": 4
        }
      ]
    },
    {
      "name": "lamp_abatJour_0",
      "primitives": [
        {
          "attributes": {
            "NORMAL": 29,
            "POSITION": 28,
            "TEXCOORD_0": 30
          },
          "indices": 31,
          "material": 6,
          "mode": 4
        }
      ]
    },
    {
      "name": "tapis_Carpet_0",
      "primitives": [
        {
          "attributes": {
            "NORMAL": 33,
            "POSITION": 32,
            "TEXCOORD_0": 34
          },
          "indices": 35,
          "material": 7,
          "mode": 4
        }
      ]
    },
    {
      "name": "papers_desk1_0",
      "primitives": [
        {
          "attributes": {
            "NORMAL": 37,
            "POSITION": 36,
            "TEXCOORD_0": 38
          },
          "indices": 39,
          "material": 4,
          "mode": 4
        }
      ]
    },
    {
      "name": "desk_desk1_0",
      "primitives": [
        {
          "attributes": {
            "NORMAL": 41,
            "POSITION": 40,
            "TEXCOORD_0": 42
          },
          "indices": 43,
          "material": 4,
          "mode": 4
        }
      ]
    },
    {
      "name": "Buste_Buste1_0",
      "primitives": [
        {
          "attributes": {
            "NORMAL": 45,
            "POSITION": 44,
            "TEXCOORD_0": 46
          },
          "indices": 47,
          "material": 8,
          "mode": 4
        }
      ]
    }
  ],
  "nodes": [
    {
      "children": [
        1
      ],
      "matrix": [
        0.30436235666275024,
        0.0,
        0.0,
        0.0,
        0.0,
        6.758201923923185e-17,
        -0.30436235666275024,
        0.0,
        0.0,
        0.30436235666275024,
        6.758201923923185e-17,
        0.0,
        0.0,
        0.0,
        0.0,
        1.0
      ],
      "name": "Sketchfab_model"
    },
    {
      "children": [
        2
      ],
      "matrix": [
        1.0,
        0.0,
        0.0,
        0.0,
        0.0,
        0.0,
        1.0,
        0.0,
        0.0,
        -1.0,
        0.0,
        0.0,
        0.0,
        0.0,
        0.0,
        1.0
      ],
      "name": "edf030e1fb5f42f2814712908112dc27.fbx"
    },
    {
      "children": [
        3,
        7,
        9,
        11,
        13,
        16,
        18,
        20,
        22
      ],
      "name": "RootNode"
    },
    {
      "children": [
        4,
        5,
        6
      ],
      "matrix": [
        1.0,
        0.0,
        0.0,
        0.0,
        0.0,
        1.0,
        0.0,
        0.0,
        0.0,
        0.0,
        1.0,
        0.0,
        0.7495760321617126,
        0.21119453012943268,
        0.4602247476577759,
        1.0
      ],
      "name": "murs"
    },
    {
      "mesh": 0,
      "name": "murs_sol_0"
    },
    {
      "mesh": 1,
      "name": "murs_Door_0"
    },
    {
      "mesh": 2,
      "name": "murs_mur_0"
    },
    {
      "children": [
        8
      ],
      "matrix": [
        1.0,
        0.0,
        0.0,
        0.0,
        0.0,
        1.0,
        0.0,
        0.0,
        0.0,
        0.0,
        1.0,
        0.0,
        -0.1654728204011917,
        5.761384963989258,
        -5.627936840057373,
        1.0
      ],
      "name": "paint"
    },
    {
      "mesh": 3,
      "name": "paint_Paint_0"
    },
    {
      "children": [
        10
      ],
      "matrix": [
        0.7647404455032542,
        0.0,
        0.5446055729766638,
        0.0,
        0.0,
        0.15345162153244019,
        0.0,
        0.0,
        -0.8298508603944014,
        0.0,
        1.1652846540122839,
        0.0,
        -0.6782832145690918,
        2.573364019393921,
        -3.888563871383667,
        1.0
      ],
      "name": "tablette"
    },
    {
      "mesh": 4,
      "name": "tablette_desk1_0"
    },
    {
      "children": [
        12
      ],
      "name": "seat"
    },
    {
      "mesh": 5,
      "name": "seat_Seat_0"
    },
    {
      "children": [
        14,
        15
      ],
      "name": "lamp"
    },
    {
      "mesh": 6,
      "name": "lamp_desk1_0"
    },
    {
      "mesh": 7,
      "name": "lamp_abatJour_0"
    },
    {
      "children": [
        17
      ],
      "matrix": [
        0.431437611579895,
        0.0,
        0.0,
        0.0,
        0.0,
        1.0,
        0.0,
        0.0,
        0.0,
        0.0,
        0.431437611579895,
        0.0,
        0.40284475684165955,
        6.208620071411133,
        1.551476240158081,
        1.0
      ],
      "name": "tapis"
    },
    {
      "mesh": 8,
      "name": "tapis_Carpet_0"
    },
    {
      "children": [
        19
      ],
      "matrix": [
        1.0,
        0.0,
        0.0,
        0.0,
        0.0,
        1.0,
        0.0,
        0.0,
        0.0,
        0.0,
        1.0,
        0.0,
        0.0,
        0.00305971410125494,
        0.0,
        1.0
      ],
      "name": "papers"
    },
    {
      "mesh": 9,
      "name": "papers_desk1_0"
    },
    {
      "children": [
        21
      ],
      "name": "desk"
    },
    {
      "mesh": 10,
      "name": "desk_desk1_0"
    },
    {
      "children": [
        23
      ],
      "name": "Buste"
    },
    {
      "mesh": 11,
      "name": "Buste_Buste1_0"
    }
  ],
  "samplers": [
    {
      "magFilter": 9729,
      "minFilter": 9987,
      "wrapS": 10497,
      "wrapT": 10497
    }
  ],
  "scene": 0,
  "scenes": [
    {
      "name": "Sketchfab_Scene",
      "nodes": [
        0
      ]
    }
  ],
  "textures": [
    {
      "sampler": 0,
      "source": 0
    },
    {
      "sampler": 0,
      "source": 1
    },
    {
      "sampler": 0,
      "source": 2
    },
    {
      "sampler": 0,
      "source": 3
    },
    {
      "sampler": 0,
      "source": 4
    },
    {
      "sampler": 0,
      "source": 5
    },
    {
      "sampler": 0,
      "source": 6
    },
    {
      "sampler": 0,
      "source": 7
    }
  ]
}
